PathFileType	4	(X/Y/Z)	s04c0203.trc
DataRate	CameraRate	NumFrames	NumMarkers	Units	OrigDataRate	OrigDataStartFrame	OrigNumFrames
200	200	4	50	mm	200	1500	2000
Frame#	Time	racr			lacr			c7			jug			rlel			rdr			llel			ldr			s2			lic			ric			lasi			rasi			rpsi			lpsi			rgt			lgt			rth1			rth2			rth3			rth4			rlfc			rmfc			rsh1			rsh2			rsh3			rsh4			rlmal			rmmal			rcal			rtoe			rmt5			lth1			lth2			lth4			lth3			llfc			lmfc			lsh1			lsh2			lsh3			lsh4			llmal			lmmal			lcal			ltoe			lmt5			SBIKE			LBIKE			RBIKE			
		X1	Y1	Z1	X2	Y2	Z2	X3	Y3	Z3	X4	Y4	Z4	X5	Y5	Z5	X6	Y6	Z6	X7	Y7	Z7	X8	Y8	Z8	X9	Y9	Z9	X10	Y10	Z10	X11	Y11	Z11	X12	Y12	Z12	X13	Y13	Z13	X14	Y14	Z14	X15	Y15	Z15	X16	Y16	Z16	X17	Y17	Z17	X18	Y18	Z18	X19	Y19	Z19	X20	Y20	Z20	X21	Y21	Z21	X22	Y22	Z22	X23	Y23	Z23	X24	Y24	Z24	X25	Y25	Z25	X26	Y26	Z26	X27	Y27	Z27	X28	Y28	Z28	X29	Y29	Z29	X30	Y30	Z30	X31	Y31	Z31	X32	Y32	Z32	X33	Y33	Z33	X34	Y34	Z34	X35	Y35	Z35	X36	Y36	Z36	X37	Y37	Z37	X38	Y38	Z38	X39	Y39	Z39	X40	Y40	Z40	X41	Y41	Z41	X42	Y42	Z42	X43	Y43	Z43	X44	Y44	Z44	X45	Y45	Z45	X46	Y46	Z46	X47	Y47	Z47	X48	Y48	Z48	X49	Y49	Z49	X50	Y50	Z50	
1500	7.5000	526.021879	1324.298022	-111.662280	501.080018	1335.808233	-411.743039	507.048149	1406.959626	-265.652536	434.589752	1265.632741	-262.986866	448.731123	1045.844995	37.567966	684.511711	955.427282	-107.994196	442.555717	1095.117255	-569.691310	654.028564	933.390510	-465.202025	-58.178286	1179.181833	-311.752250	106.682531	1180.967882	-457.183325	72.392278	1201.403154	-139.518944	106.672894	1180.936418	-457.208702	121.436676	1162.444075	-188.422020	-35.939315	1225.989034	-270.889560	-26.993982	1223.502129	-345.466203	34.909569	1163.178846	-119.251964	66.903316	1083.743010	-480.729240	167.817113	1095.365020	-101.311112	255.047249	1082.046851	-107.482494	324.205366	1033.096716	-101.863768	266.315365	1111.172501	-129.576639	450.763318	956.304897	-121.440386	442.752011	933.389818	-236.663132	388.623348	852.574382	-104.569040	366.848700	764.567861	-116.142411	303.613060	706.100111	-125.723413	397.079565	750.653244	-136.525276	243.857194	561.516817	-134.876136	268.757306	566.423858	-218.236287	171.123649	540.102032	-176.571560	463.104528	470.417567	-164.775178	393.078298	458.382683	-108.937776	113.573569	999.038644	-496.121419	179.930563	942.860074	-497.032605	208.615808	962.601047	-486.131069	209.990682	859.082892	-500.228502	273.283703	710.207354	-475.890329	304.470985	681.382604	-366.928701	225.560924	595.010355	-494.284492	204.095692	513.445729	-470.978919	143.099749	449.083402	-465.064488	231.338368	503.309150	-444.363192	69.528388	322.275272	-453.105087	73.755610	332.353606	-366.442850	-6.220741	340.696659	-409.030573	241.646667	165.848553	-415.907042	160.465888	171.906389	-475.742866	-184.924316	930.106116	-286.218983	-17.444692	79.436793	-485.345225	-17.411996	79.442239	-84.665481	
1501	7.5050	525.856223	1324.234925	-110.969904	500.890665	1334.643659	-411.274618	507.118698	1406.303004	-265.228923	434.252771	1265.194991	-261.991730	446.976775	1046.030674	38.343113	682.904507	955.294199	-106.797767	441.828332	1094.149656	-569.410778	653.841639	933.375750	-465.039915	-57.675908	1179.056723	-311.382568	106.834608	1180.787886	-456.819474	73.994874	1200.981663	-137.784509	106.773799	1180.796313	-456.763856	121.799902	1161.819669	-187.077311	-38.219434	1225.673755	-270.020869	-26.414165	1223.580466	-345.099859	35.391255	1162.031193	-119.340202	67.728872	1084.121263	-480.502043	168.104940	1090.089698	-101.776065	255.477533	1075.638183	-107.904799	323.405528	1024.959733	-102.750223	267.413308	1104.687289	-129.685976	448.518203	945.737853	-122.894384	440.089117	923.473853	-237.470561	387.875576	840.758465	-104.850144	367.313628	752.417061	-116.182553	304.913969	693.047482	-125.383592	397.719291	739.244706	-136.255596	247.288011	547.796369	-134.211585	271.397911	553.436036	-217.994198	174.216364	523.637946	-175.237488	467.996706	467.785818	-164.277727	399.458311	451.776692	-107.359352	116.427187	1000.404221	-494.104299	183.830400	945.853019	-496.025924	212.018052	966.077870	-484.935989	215.640991	862.689385	-499.865406	280.337654	714.401093	-475.580511	309.864098	685.039481	-366.600161	230.871413	600.302822	-493.750811	207.158486	519.459029	-470.509139	144.532742	456.746112	-464.936156	233.801464	508.882782	-443.494874	67.133510	332.100729	-453.050772	71.536598	341.865523	-366.425581	-8.203354	352.687787	-409.331784	234.086565	169.599687	-415.607073	153.249921	178.575246	-475.555959	-184.800350	930.021947	-286.062411	-17.414459	79.456959	-485.342223	-17.407006	79.397904	-84.644208	
1502	7.5100	525.785466	1324.176930	-110.343876	500.670954	1333.611291	-410.888920	507.228910	1405.690452	-264.980207	433.930149	1264.819347	-261.127679	444.972025	1046.320106	38.767429	681.127293	955.266045	-105.702032	440.771650	1093.157671	-569.054411	653.668350	933.647467	-464.782643	-57.248776	1178.572045	-311.442367	107.085097	1180.504985	-456.400252	73.990177	1200.066893	-137.635086	106.992061	1180.480032	-456.256567	122.269683	1161.013448	-185.570596	-38.516919	1225.241830	-269.498444	-26.031063	1223.508721	-344.830112	35.890877	1160.272167	-119.394966	68.710399	1084.364839	-480.387937	169.086841	1085.310301	-101.774394	255.752825	1068.535819	-108.149691	322.427810	1016.148645	-103.726816	268.447455	1097.541645	-129.687018	445.326660	934.140537	-124.214583	436.581298	911.759671	-238.563690	386.991477	828.087578	-104.867699	367.721131	739.395515	-116.131831	306.201099	679.068155	-124.790394	398.191355	726.693310	-136.417209	250.182944	533.354763	-133.839472	273.422239	539.724704	-217.867264	177.046460	506.373360	-174.193390	472.821774	463.627063	-163.747831	405.088693	444.106798	-106.693511	119.070901	1001.860127	-493.175181	187.562056	948.578890	-495.045599	215.289640	969.340683	-483.839323	221.077978	866.135328	-499.333744	287.031168	718.602977	-475.121099	316.430567	689.581477	-366.180410	236.077054	605.803557	-493.331202	210.165148	525.683836	-469.945743	145.911558	464.835075	-464.908189	236.236078	514.596008	-442.381718	64.677043	342.034550	-452.969102	69.132559	351.680967	-366.297800	-10.131822	364.619399	-409.283267	226.656079	174.318334	-415.727783	146.317497	185.988682	-475.450035	-184.647701	930.069891	-286.133794	-17.398077	79.442625	-485.317353	-17.393765	79.345454	-84.630229	
1503	7.5150	525.865179	1324.131444	-109.796477	500.588602	1332.687242	-410.702740	507.412816	1405.153867	-264.793107	433.813678	1264.452617	-260.392483	442.939748	1046.708602	38.874012	679.131291	955.220093	-104.609011	439.600239	1092.237349	-568.817285	653.080636	933.481970	-464.282594	-56.738028	1177.876873	-311.440969	107.444921	1180.115983	-455.936561	74.096298	1199.284644	-137.304929	107.397928	1180.041285	-455.779150	122.849738	1160.015316	-183.908506	-38.237218	1225.184142	-269.457686	-25.656923	1223.152905	-344.847109	36.410107	1157.845454	-119.456133	69.791396	1084.426795	-480.309201	170.115885	1079.848283	-101.809928	256.187257	1060.889117	-108.488799	321.214509	1006.882975	-104.633614	269.318483	1089.929565	-129.024736	442.795790	921.996862	-124.716880	433.036520	899.982720	-238.916644	385.831427	814.730271	-104.799110	367.793333	725.675024	-116.277169	307.212737	664.409274	-124.652573	398.328490	713.621498	-136.843927	253.031204	518.294801	-133.730803	275.838425	525.310499	-218.094687	180.076628	488.985343	-173.307329	477.162316	458.596317	-163.585361	410.736633	435.859156	-106.121284	121.657747	1003.134096	-492.471328	191.102444	951.092710	-494.117151	218.368131	972.324713	-482.736070	226.162309	869.318511	-498.585801	293.470530	722.744171	-474.483478	321.782848	694.454403	-365.276941	241.167801	611.283139	-492.822036	213.042451	531.938299	-469.267637	147.279197	472.460321	-464.387175	238.502343	520.407102	-441.326403	62.265415	352.087021	-452.767722	66.723211	361.544084	-366.070469	-12.072263	376.356056	-409.161622	219.836917	179.992548	-415.578837	139.854185	193.912678	-475.332427	-184.507462	930.076982	-286.100674	-17.378073	79.429137	-485.299408	-17.364086	79.343540	-84.623797	
